#N canvas 367 48 446 386 12;
#X obj 111 201 samphold~;
#X obj 190 97 phasor~;
#X obj 112 144 noise~;
#X obj 92 255 wrap~;
#X obj 46 144 phasor~;
#X obj 92 230 +~;
#X obj 229 38 inlet;
#X obj 273 38 inlet;
#X obj 317 38 inlet;
#X obj 139 328 outlet~;
#X obj 199 328 outlet~;
#X obj 234 133 *~ -1;
#X obj 216 200 expr~ $v1 > 0;
#X obj 317 89 sig~;
#X floatatom 317 64 5 0 0 0 - - -;
#X obj 234 172 +~;
#X obj 268 90 sig~ 1;
#X obj 298 131 -~;
#X connect 0 0 5 1;
#X connect 1 0 0 1;
#X connect 1 0 11 0;
#X connect 2 0 0 0;
#X connect 3 0 9 0;
#X connect 4 0 5 0;
#X connect 5 0 3 0;
#X connect 6 0 4 0;
#X connect 7 0 1 0;
#X connect 8 0 14 0;
#X connect 11 0 15 0;
#X connect 12 0 10 0;
#X connect 13 0 17 1;
#X connect 14 0 13 0;
#X connect 15 0 12 0;
#X connect 16 0 17 0;
#X connect 17 0 15 1;
